<?xml version="1.0" encoding="utf-8"?>
<svg width="250px" height="250px" viewBox="0 0 250 250" version="1.1" xmlns:xlink="http://www.w3.org/1999/xlink" xmlns="http://www.w3.org/2000/svg">
  <defs>
    <filter filterUnits="userSpaceOnUse" color-interpolation-filters="sRGB" id="filter_1">
      <feFlood flood-opacity="0" result="BackgroundImageFix" />
      <feBlend mode="normal" in="SourceGraphic" in2="BackgroundImageFix" result="shape" />
      <feGaussianBlur stdDeviation="16.5" result="effect0_gaussianBlur" />
    </filter>
    <filter filterUnits="userSpaceOnUse" color-interpolation-filters="sRGB" id="filter_2">
      <feFlood flood-opacity="0" result="BackgroundImageFix" />
      <feColorMatrix in="SourceAlpha" type="matrix" values="0 0 0 0 0 0 0 0 0 0 0 0 0 0 0 0 0 0 127 0" />
      <feMorphology radius="1" operator="dilate" in="SourceAlpha" result="effect0_dropShadow" />
      <feOffset dx="0" dy="-2" />
      <feGaussianBlur stdDeviation="2.5" />
      <feColorMatrix type="matrix" values="0 0 0 0 0 0 0 0 0 0 0 0 0 0 0 0 0 0 1 0" />
      <feBlend mode="normal" in2="BackgroundImageFix" result="effect0_dropShadow" />
      <feBlend mode="normal" in="SourceGraphic" in2="effect0_dropShadow" result="shape" />
    </filter>
    <rect width="250" height="250" id="artboard_1" />
    <clipPath id="clip_1">
      <use xlink:href="#artboard_1" clip-rule="evenodd" />
    </clipPath>
  </defs>
  <g id="Icon" clip-path="url(#clip_1)">
    <path d="M130.877 24.2701L228.494 95.1929Q228.812 95.4238 229.111 95.6789Q229.41 95.9341 229.687 96.2119Q229.965 96.4897 230.22 96.7884Q230.475 97.0871 230.706 97.4049Q230.937 97.7228 231.143 98.0578Q231.348 98.3927 231.526 98.7428Q231.704 99.0928 231.855 99.4558Q232.005 99.8187 232.127 100.192Q232.248 100.566 232.34 100.948Q232.431 101.33 232.493 101.718Q232.554 102.106 232.585 102.498Q232.616 102.889 232.616 103.282Q232.616 103.675 232.585 104.067Q232.554 104.458 232.493 104.846Q232.431 105.234 232.34 105.616Q232.248 105.998 232.127 106.372L194.84 221.128Q194.719 221.501 194.569 221.864Q194.418 222.227 194.24 222.577Q194.062 222.927 193.856 223.262Q193.651 223.597 193.42 223.915Q193.189 224.233 192.934 224.532Q192.679 224.83 192.401 225.108Q192.123 225.386 191.825 225.641Q191.526 225.896 191.208 226.127Q190.89 226.358 190.555 226.563Q190.22 226.769 189.87 226.947Q189.52 227.125 189.157 227.276Q188.794 227.426 188.421 227.547Q188.047 227.669 187.665 227.761Q187.283 227.852 186.895 227.914Q186.507 227.975 186.115 228.006Q185.724 228.037 185.331 228.037L64.6697 228.037Q64.2768 228.037 63.8852 228.006Q63.4935 227.976 63.1055 227.914Q62.7175 227.853 62.3355 227.761Q61.9535 227.669 61.5798 227.548Q61.2062 227.426 60.8432 227.276Q60.4803 227.126 60.1302 226.947Q59.7802 226.769 59.4452 226.564Q59.1103 226.358 58.7924 226.128Q58.4746 225.897 58.1759 225.641Q57.8771 225.386 57.5993 225.109Q57.3215 224.831 57.0664 224.532Q56.8112 224.233 56.5803 223.915Q56.3494 223.598 56.1441 223.263Q55.9389 222.928 55.7605 222.578Q55.5822 222.228 55.4318 221.865Q55.2815 221.502 55.1601 221.128L17.8733 106.373Q17.7519 105.999 17.6602 105.617Q17.5685 105.235 17.507 104.847Q17.4456 104.459 17.4147 104.067Q17.3839 103.676 17.3839 103.283Q17.3839 102.89 17.4147 102.498Q17.4455 102.107 17.507 101.719Q17.5685 101.331 17.6602 100.949Q17.7519 100.567 17.8733 100.193Q17.9947 99.8193 18.145 99.4563Q18.2954 99.0934 18.4737 98.7433Q18.6521 98.3933 18.8573 98.0583Q19.0626 97.7233 19.2935 97.4055Q19.5244 97.0877 19.7796 96.7889Q20.0347 96.4902 20.3125 96.2124Q20.5903 95.9346 20.8891 95.6795Q21.1878 95.4243 21.5056 95.1934L119.123 24.2701Q119.441 24.0392 119.776 23.8339Q120.111 23.6286 120.461 23.4503Q120.811 23.2719 121.174 23.1216Q121.537 22.9712 121.91 22.8498Q122.284 22.7284 122.666 22.6367Q123.048 22.545 123.436 22.4836Q123.824 22.4221 124.215 22.3913Q124.607 22.3605 125 22.3605Q125.393 22.3605 125.785 22.3913Q126.176 22.4221 126.564 22.4836Q126.952 22.545 127.334 22.6367Q127.716 22.7284 128.09 22.8498Q128.463 22.9712 128.826 23.1216Q129.189 23.2719 129.539 23.4503Q129.889 23.6286 130.224 23.8339Q130.559 24.0392 130.877 24.2701Z" id="Polygon" fill="#3E6300" fill-rule="evenodd" stroke="#002B1B" stroke-width="10" />
    <path d="M125.5 187L54 102L197 102L125.5 187Z" id="Triangle" fill="#96B400" fill-rule="evenodd" stroke="none" filter="url(#filter_1)" />
    <path d="M125.5 175L74.0001 110L177 110L125.5 175Z" id="Triangle-2" fill="#AFB800" fill-rule="evenodd" stroke="none" filter="url(#filter_2)" />
  </g>
</svg>